<svg xmlns="http://www.w3.org/2000/svg" viewBox="0 0 512 512">
  <defs>
    <linearGradient id="mf-shell" x1="88" y1="88" x2="424" y2="424" gradientUnits="userSpaceOnUse">
      <stop offset="0" stop-color="#6C63FF" />
      <stop offset="1" stop-color="#1ED6E7" />
    </linearGradient>
    <radialGradient id="mf-glow" cx="0" cy="0" r="1" gradientTransform="translate(368 120) rotate(135) scale(280 220)" gradientUnits="userSpaceOnUse">
      <stop offset="0" stop-color="#9CB8FF" stop-opacity="0.42" />
      <stop offset="1" stop-color="#9CB8FF" stop-opacity="0" />
    </radialGradient>
  </defs>

  <rect width="512" height="512" rx="120" fill="#0A0F1E" />
  <rect x="24" y="24" width="464" height="464" rx="106" fill="url(#mf-shell)" />
  <rect x="40" y="40" width="432" height="432" rx="92" fill="#0B1328" />
  <rect x="40" y="40" width="432" height="432" rx="92" fill="url(#mf-glow)" />

  <g fill="#20D7E8">
    <rect x="118" y="292" width="56" height="100" rx="12" />
    <rect x="228" y="214" width="56" height="178" rx="12" />
    <rect x="338" y="156" width="56" height="236" rx="12" />
  </g>

  <path d="M118 270C157 231 190 214 226 214C260 214 290 225 314 245C343 220 373 208 412 208" stroke="#ECF2FF" stroke-width="24" stroke-linecap="round" stroke-linejoin="round" fill="none" />
  <circle cx="412" cy="208" r="18" fill="#ECF2FF" />
</svg>
